<?xml version="1.0" encoding="utf-8"?>
<!-- Generator: Adobe Illustrator 26.3.0, SVG Export Plug-In . SVG Version: 6.00 Build 0)  -->
<svg version="1.1" xmlns="http://www.w3.org/2000/svg" xmlns:xlink="http://www.w3.org/1999/xlink" x="0px" y="0px"
	 viewBox="0 0 341.88 200" style="enable-background:new 0 0 341.88 200;" xml:space="preserve">
<style type="text/css">
	.st0{fill:#FFFFFF;}
	.st1{fill:#522B79;}
	.st2{fill:#482670;}
</style>
<g id="Layer_3">
	<path class="st0" d="M241.881,0.001c-27.734,0-52.827,11.296-70.941,29.531C152.825,11.297,127.733,0.001,99.999,0.001
		C44.771,0.001,0,44.772,0,100c0,55.228,44.771,99.999,99.999,99.999c27.735,0,52.827-11.296,70.941-29.531
		c18.115,18.235,43.207,29.531,70.941,29.531c55.228,0,99.999-44.771,99.999-99.999C341.88,44.772,297.109,0.001,241.881,0.001z"/>
</g>
<g id="Layer_1">
	<g>
		<g>
			<path class="st1" d="M57.318,57.72c-0.168,3.872,0.023,6.825,0.105,7.921c0.748-0.273,1.529-0.549,2.335-0.825
				c0.376,3.748,0.946,7.474,1.706,11.156c-1.995,2.214-3.262,5.516-3.262,9.208c0,6,3.345,10.975,7.726,11.908
				c-1.268,10.362-1.338,23.885,1.331,28.623c0.145-0.516,0.29-1.032,0.435-1.549c0.532,3.531,2.242,6.875,4.793,9.374
				c0-0.588,0.001-1.176,0.001-1.765c0.593,1.048,1.154,2.092,1.751,3.11c0.9,1.533,1.885,3.003,3.185,4.327
				c0.65,0.662,1.379,1.288,2.216,1.867c-0.036-0.739-0.072-1.477-0.108-2.216c1.723,2.892,3.966,5.04,7.217,7.255
				c-0.007-0.359-0.015-0.718-0.022-1.077c1.073,1.481,2.403,3.1,4.275,4.407c0.319,0.223,0.652,0.437,1.004,0.639
				c0.08-0.233,0.047-0.455,0.019-0.678c-0.026-0.205-0.049-0.411,0.025-0.626c0.173,0.221,0.382,0.422,0.618,0.604
				c2.537,1.96,8.314,1.795,8.314,1.795s5.613,0.16,8.203-1.712c0.283-0.204,0.53-0.432,0.729-0.687
				c0.084,0.243,0.044,0.475,0.015,0.709c-0.024,0.195-0.041,0.391,0.029,0.595c0.315-0.181,0.616-0.371,0.904-0.569
				c1.926-1.318,3.283-2.97,4.375-4.477c-0.007,0.359-0.015,0.718-0.022,1.077c3.126-2.13,5.318-4.199,7.014-6.926
				c0.068-0.109,0.137-0.218,0.203-0.329c-0.006,0.123-0.012,0.247-0.018,0.37c-0.03,0.615-0.06,1.23-0.09,1.846
				c0.66-0.456,1.252-0.941,1.792-1.45c1.007-0.95,1.83-1.984,2.561-3.069c1.028-1.526,1.876-3.152,2.8-4.785
				c0,0.588,0.001,1.176,0.001,1.765c2.551-2.499,4.261-5.843,4.793-9.374c0.145,0.516,0.29,1.032,0.435,1.549
				c2.668-4.737,2.598-18.261,1.331-28.623c4.381-0.934,7.725-5.909,7.725-11.908c0-5.746-3.068-10.551-7.176-11.767
				c1.183-2.815,2.142-5.723,2.862-8.69c0.864,0.293,1.694,0.584,2.479,0.869c0.006-0.48,0.012-1.196,0.007-2.062
				c0,0,0.127-6.685-0.711-12.172c-0.067-0.442-0.135-0.883-0.203-1.323c-0.102-2.231-0.436-4.443-1.183-6.523
				c-1.037-4.595-2.64-8.945-5.849-12.745c-6.273-7.429-15.373-8.843-24.919-10.326c-5.445-0.846-15.297-1.622-26.651,1.793
				c-3.577,1.076-8.124,2.443-12.058,5.194c-6.766,4.73-10.101,12.419-11.706,19.701c-1.183,3.402-1.704,7.028-1.354,10.641
				C57.308,57.753,57.313,57.736,57.318,57.72z M135.734,77.303c-0.001,1.474-0.004,2.968-0.004,4.478
				c0,3.907-0.06,7.704-0.268,11.338c-0.055,0.966-0.121,1.92-0.199,2.861c-0.088,0.422-0.191,0.84-0.307,1.254
				c-1.01,3.612-3.012,6.974-4.976,10.217c-1.184,1.955-2.423,3.963-3.968,5.626c-0.908,0.977-1.921,1.835-3.092,2.492
				c-2.546,1.428-10.387,3.843-14.656,1.384c-3.874-2.231-4.276-1.698-4.276-1.698h-6.009c0,0,0.115-0.658-4.276,1.698
				c-4.342,2.329-12.11,0.044-14.656-1.384c-1.171-0.657-2.184-1.515-3.092-2.492c-1.545-1.663-2.784-3.671-3.968-5.626
				c-1.964-3.243-3.966-6.605-4.976-10.217c-0.116-0.415-0.219-0.833-0.308-1.255c-0.078-0.941-0.143-1.895-0.199-2.86
				c-0.208-3.634-0.268-7.431-0.268-11.338c0-1.117-0.002-2.224-0.003-3.321c0.214-0.43,0.433-0.856,0.661-1.278
				c0.715-1.322,1.5-2.602,2.347-3.834c3.745-5.451,8.726-9.961,14.455-12.927c-0.694,2.083-1.852,3.991-3.353,5.528
				c7.766-0.936,15.293-3.652,22.061-7.772c10.537,0.231,19.79,1.791,27.388,3.699c0.096,0.131,0.189,0.265,0.286,0.395
				c0.012-0.104,0.025-0.209,0.037-0.313c0.791,0.201,1.565,0.405,2.319,0.612c0.856,3.519,1.713,7.037,2.569,10.556
				c0.202,0.83,0.404,1.661,0.606,2.491c0.042-0.09,0.082-0.181,0.123-0.271C135.734,75.995,135.735,76.647,135.734,77.303z"/>
			<path class="st1" d="M149.788,152.202c-5.418-3.272-10.836-6.544-16.254-9.816c0.003-0.003,0.005-0.006,0.008-0.009
				c-2.017-0.694-4.328-1.419-6.904-2.11c-0.009,1.121-0.015,2.246-0.017,3.377c-0.003,1.546,0.001,3.081,0.01,4.607
				c-0.835,0.582-1.729,1.162-2.681,1.73c-2.201,1.313-4.715,2.558-7.552,3.59c-4.581,1.665-8.958,2.394-12.897,2.587l-0.011-0.014
				l-1.938,0.034l-3.031-0.053l-0.005,0.007c-5.381-0.319-9.475-1.491-11.421-2.072c-3.409-1.017-6.436-2.329-9.086-3.753
				c-1.332-0.716-2.567-1.459-3.708-2.208c0.005-1.175,0.008-2.354,0.008-3.539c0-1.543-0.007-3.076-0.016-4.603
				c-2.778,0.709-5.264,1.466-7.427,2.195c0.001,0.001,0.002,0.002,0.002,0.003c-4.876,4.089-9.752,8.177-14.628,12.266
				c0.006,0.007,0.011,0.014,0.017,0.021c-8.65,2.104-17.029,5.057-23.81,9.193c4.323,4.867,9.152,9.308,14.362,13.203
				c5.356,4.004,11.141,7.451,17.193,10.245c6.163,2.846,12.647,5.035,19.271,6.505c6.348,1.409,12.881,2.17,19.442,2.266
				c0.476,0.007,0.951,0.011,1.427,0.011c1.18,0,2.36-0.024,3.538-0.067c6.322-0.23,12.598-1.075,18.703-2.526
				c7.038-1.672,13.895-4.154,20.379-7.379c6.37-3.167,12.403-7.06,17.933-11.571c5.389-4.396,10.306-9.387,14.624-14.837
				C168.358,155.881,159.649,153.641,149.788,152.202z"/>
		</g>
	</g>
</g>
<g id="Layer_4">
	<g>
		<path class="st1" d="M294.139,107.8c-2.48-8.68-7.52-26.36-10.16-43.08c-0.24-1.56-0.76-4.76-2.04-8.92
			c-1.56-5-4.68-15.16-13.56-23.28c-3.44-3.2-14-11.76-29.48-11.36c-2,0.04-15.52,0.6-26.4,10.64c0,0-8.84,8.12-13.24,22.56
			c-0.6,1.96-1.32,4.52-1.32,4.52c-0.72,2.6-1.2,4.56-1.4,5.32c-5.76,23-8.64,34.48-10.28,41.32
			c-4.96,20.96-12.6,37.799-18.6,54.799c2.48,3,5.12,5.88,7.92,8.56c0.04,0.04,0.08,0.08,0.12,0.12c0.88,0.8,1.72,1.6,2.6,2.4
			c0.04,0.04,0.12,0.08,0.16,0.16c2.56,2.28,5.28,4.36,8.08,6.4l0.2,0.12c0.92,0.68,1.88,1.28,2.84,1.88l1.28,0.88l0.2,0.12
			c2.92,1.84,5.96,3.52,9.08,5.04c0.08,0.04,0.12,0.08,0.2,0.12c0.92,0.44,1.84,0.84,2.76,1.24c0.08,0.04,0.12,0.04,0.2,0.08
			c1.08,0.48,2.12,0.92,3.24,1.36l0.2,0.08c0.2,0.08,0.4,0.16,0.6,0.24l0.8,0.32l0.2,0.08c10.4,3.88,21.64,6,33.4,6
			c12.48,0,24.4-2.4,35.32-6.76c0.08-0.04,0.12-0.04,0.2-0.08c0.76-0.32,1.52-0.6,2.24-0.92c0.08-0.04,0.12-0.04,0.2-0.08
			c7.72-3.32,14.8-7.64,21.28-12.8c0.04-0.04,0.12-0.08,0.16-0.12c1-0.76,2-1.6,2.96-2.44c0.04-0.04,0.12-0.08,0.16-0.16
			c3.6-3.12,6.96-6.48,10.08-10.12C308.458,146.879,300.259,129.24,294.139,107.8z M241.739,79.32c-13.08,0-25.24-0.36-35.24-1
			c0.4-1.64,0.8-3.24,1.16-4.8c9.76-1.92,21.48-3.04,34.08-3.04c10.48,0,20.36,0.76,29,2.16c0.44,1.88,0.92,3.88,1.4,5.96
			C263.139,79.04,252.779,79.32,241.739,79.32z"/>
		<path class="st2" d="M261.259,39.161c0,0,8.776,23.263,18.04,74.639C279.299,113.8,279.838,70.202,261.259,39.161z"/>
		<path class="st2" d="M217.619,40.84c0,0-12.013,31.26-18.28,74.559C199.34,115.4,199.617,67.386,217.619,40.84z"/>
		<path class="st2" d="M186.98,132.6c0,0-5.131,16.993-8.332,38.02l-2.842-2.752C175.806,167.867,180.926,143.082,186.98,132.6z"/>
		<path class="st2" d="M186.645,177.163l4.467,3.023c0,0,5.481-61.454,9.526-73.114
			C200.637,107.072,194.491,121.033,186.645,177.163z"/>
		<path class="st2" d="M215.899,85.44c0,0-10.993,48.657-15.665,99.667l3.102,1.78C203.336,186.887,207.706,135.821,215.899,85.44z"
			/>
		<path class="st2" d="M209.101,175.319c0,0-1.466,9.197-0.793,13.335l-1.734-0.715
			C206.574,187.939,206.228,180.345,209.101,175.319z"/>
		<path class="st2" d="M265.539,85.52c0,0,9.739,76.137,11.352,101.367l2.808-0.711C279.699,186.176,277.457,138.922,265.539,85.52z
			"/>
		<path class="st2" d="M290.939,126.88c0,0,8.098,32.727,9.743,46.365l3.269-2.625C303.951,170.619,297.903,141.171,290.939,126.88z
			"/>
	</g>
</g>
<g id="Layer_5">
	<path class="st1" d="M241.881,1.601c54.257,0,98.399,44.142,98.399,98.399s-44.142,98.399-98.399,98.399
		c-26.4,0-51.191-10.32-69.806-29.059l-1.135-1.143l-1.135,1.143c-18.615,18.739-43.406,29.059-69.806,29.059
		C45.741,198.399,1.6,154.257,1.6,100S45.741,1.601,99.999,1.601c26.4,0,51.191,10.32,69.806,29.059l1.135,1.143l1.135-1.143
		C190.69,11.921,215.481,1.601,241.881,1.601 M241.881,0.001c-27.734,0-52.827,11.296-70.941,29.531
		C152.825,11.297,127.733,0.001,99.999,0.001C44.771,0.001,0,44.772,0,100c0,55.228,44.771,99.999,99.999,99.999
		c27.735,0,52.827-11.296,70.941-29.531c18.115,18.236,43.207,29.531,70.941,29.531c55.228,0,99.999-44.771,99.999-99.999
		C341.88,44.772,297.109,0.001,241.881,0.001L241.881,0.001z"/>
</g>
</svg>
