<?xml version="1.0" encoding="utf-8"?>
<!-- Generator: Adobe Illustrator 26.3.0, SVG Export Plug-In . SVG Version: 6.00 Build 0)  -->
<svg version="1.1" xmlns="http://www.w3.org/2000/svg" xmlns:xlink="http://www.w3.org/1999/xlink" x="0px" y="0px"
	 viewBox="0 0 50 50" style="enable-background:new 0 0 50 50;" xml:space="preserve">
<style type="text/css">
	.st0{fill:#FFFFFF;}
	.st1{fill:#522B79;}
	.st2{fill:#482670;}
</style>
<g id="Layer_3">
	<circle class="st0" cx="25" cy="25" r="24.95"/>
</g>
<g id="Layer_1">
	<path class="st1" d="M25,0.4c13.564,0,24.6,11.036,24.6,24.6S38.564,49.6,25,49.6S0.4,38.564,0.4,25S11.436,0.4,25,0.4 M25,0
		C11.193,0,0,11.193,0,25s11.193,25,25,25s25-11.193,25-25S38.807,0,25,0L25,0z"/>
</g>
<g id="Layer_4">
	<path class="st1" d="M38.1,26.95c-0.62-2.17-1.88-6.59-2.54-10.77c-0.06-0.39-0.19-1.19-0.51-2.23c-0.39-1.25-1.17-3.79-3.39-5.82
		c-0.86-0.8-3.5-2.94-7.37-2.84c-0.5,0.01-3.88,0.15-6.6,2.66c0,0-2.21,2.03-3.31,5.64c-0.15,0.49-0.33,1.13-0.33,1.13
		c-0.18,0.65-0.3,1.14-0.35,1.33c-1.44,5.75-2.16,8.62-2.57,10.33c-1.24,5.24-3.15,9.45-4.65,13.7c0.62,0.75,1.28,1.47,1.98,2.14
		c0.01,0.01,0.02,0.02,0.03,0.03c0.22,0.2,0.43,0.4,0.65,0.6c0.01,0.01,0.03,0.02,0.04,0.04c0.64,0.57,1.32,1.09,2.02,1.6l0.05,0.03
		c0.23,0.17,0.47,0.32,0.71,0.47l0.32,0.22l0.05,0.03c0.73,0.46,1.49,0.88,2.27,1.26c0.02,0.01,0.03,0.02,0.05,0.03
		c0.23,0.11,0.46,0.21,0.69,0.31c0.02,0.01,0.03,0.01,0.05,0.02c0.27,0.12,0.53,0.23,0.81,0.34l0.05,0.02
		c0.05,0.02,0.1,0.04,0.15,0.06l0.2,0.08l0.05,0.02c2.6,0.97,5.41,1.5,8.35,1.5c3.12,0,6.1-0.6,8.83-1.69
		c0.02-0.01,0.03-0.01,0.05-0.02c0.19-0.08,0.38-0.15,0.56-0.23c0.02-0.01,0.03-0.01,0.05-0.02c1.93-0.83,3.7-1.91,5.32-3.2
		c0.01-0.01,0.03-0.02,0.04-0.03c0.25-0.19,0.5-0.4,0.74-0.61c0.01-0.01,0.03-0.02,0.04-0.04c0.9-0.78,1.74-1.62,2.52-2.53
		C41.68,36.72,39.63,32.31,38.1,26.95z M25,19.83c-3.27,0-6.31-0.09-8.81-0.25c0.1-0.41,0.2-0.81,0.29-1.2
		c2.44-0.48,5.37-0.76,8.52-0.76c2.62,0,5.09,0.19,7.25,0.54c0.11,0.47,0.23,0.97,0.35,1.49C30.35,19.76,27.76,19.83,25,19.83z"/>
	<g id="Layer_7">
		<path class="st2" d="M29.88,9.79c0,0,2.194,5.816,4.51,18.66C34.39,28.45,34.525,17.551,29.88,9.79z"/>
		<path class="st2" d="M18.97,10.21c0,0-3.003,7.815-4.57,18.64C14.4,28.85,14.469,16.846,18.97,10.21z"/>
		<path class="st2" d="M11.31,33.15c0,0-1.283,4.248-2.083,9.505l-0.71-0.688C8.516,41.967,9.796,35.771,11.31,33.15z"/>
		<path class="st2" d="M11.226,44.291l1.117,0.756c0,0,1.37-15.364,2.381-18.279C14.724,26.768,13.188,30.258,11.226,44.291z"/>
		<path class="st2" d="M18.54,21.36c0,0-2.748,12.164-3.916,24.917l0.775,0.445C15.399,46.722,16.492,33.955,18.54,21.36z"/>
		<path class="st2" d="M16.84,43.83c0,0-0.366,2.299-0.198,3.334l-0.434-0.179C16.209,46.985,16.122,45.086,16.84,43.83z"/>
		<path class="st2" d="M30.95,21.38c0,0,2.435,19.034,2.838,25.342l0.702-0.178C34.49,46.544,33.929,34.731,30.95,21.38z"/>
		<path class="st2" d="M37.3,31.72c0,0,2.025,8.182,2.436,11.591l0.817-0.656C40.553,42.655,39.041,35.293,37.3,31.72z"/>
	</g>
</g>
</svg>
