<?xml version="1.0" encoding="utf-8"?>
<!-- Generator: Adobe Illustrator 26.3.0, SVG Export Plug-In . SVG Version: 6.00 Build 0)  -->
<svg version="1.1" xmlns="http://www.w3.org/2000/svg" xmlns:xlink="http://www.w3.org/1999/xlink" x="0px" y="0px"
	 viewBox="0 0 50 50" style="enable-background:new 0 0 50 50;" xml:space="preserve">
<style type="text/css">
	.st0{fill:#FFFFFF;}
	.st1{fill:#532B79;}
</style>
<g id="Layer_3">
	<circle class="st0" cx="25" cy="25" r="24.9500008"/>
</g>
<g id="Layer_1">
	<path class="st1" d="M37.4119568,38.0506058c-1.354538-0.817997-2.7090263-1.6360588-4.0635643-2.454052
		c0.0006371-0.0007553,0.0012932-0.0015144,0.0019302-0.0022697c-0.5041733-0.1736145-1.0820236-0.354847-1.7260151-0.5274048
		c-0.0021667,0.2801743-0.0037079,0.5613937-0.0042362,0.8442307c-0.0007229,0.3864212,0.0002365,0.7701912,0.0025654,1.1516953
		c-0.2087555,0.1454964-0.432312,0.2906113-0.6703682,0.4326286c-0.5502777,0.3282928-1.1787128,0.6395798-1.8881264,0.8974113
		c-1.1452713,0.4162369-2.2396297,0.5985794-3.2243328,0.6467323l-0.0028572-0.0035362l-0.4844666,0.0085258l-0.7578049-0.0133553
		l-0.0013256,0.0016441c-1.3452873-0.0798645-2.368679-0.3727798-2.8553982-0.5179329
		c-0.8522606-0.2541275-1.6090202-0.5823402-2.2714214-0.9382401c-0.3330402-0.1789398-0.6417809-0.3648682-0.9271278-0.5519562
		c0.0013142-0.2938271,0.0020905-0.5885735,0.0020256-0.8847046c-0.0000858-0.3856964-0.0016594-0.7689056-0.0040855-1.1506767
		c-0.6944504,0.1773224-1.316124,0.3665695-1.8568306,0.5486984c0.0001945,0.0002098,0.0003872,0.0004196,0.0005817,0.0006371
		c-1.2189751,1.0221405-2.437973,2.044323-3.6569805,3.0664673c0.0014229,0.0017624,0.0028353,0.0035248,0.0042582,0.0052872
		c-2.1626081,0.526104-4.2572899,1.2642059-5.9525499,2.2982712c1.0807219,1.2168198,2.2880659,2.3271408,3.5905437,3.3007126
		c1.3390551,1.0009003,2.7852411,1.8626747,4.2983723,2.5613823c1.5408783,0.7115173,3.1618423,1.2586784,4.8178635,1.6262894
		c1.5869961,0.3522949,3.2203884,0.5424957,4.8606377,0.5666161C24.7621384,48.9654579,24.881052,48.9664993,25,48.9664993
		c0.2950916,0,0.5899372-0.0060158,0.884428-0.0167465c1.5805378-0.057621,3.1495094-0.2688713,4.675684-0.6314049
		c1.7594986-0.4179535,3.4736786-1.0385971,5.0949211-1.8446846c1.5924835-0.79179,3.1008492-1.7650642,4.4832191-2.8927841
		c1.3471489-1.0989838,2.576519-2.3467369,3.6561165-3.7092667C42.0544167,38.9703903,39.8771706,38.410347,37.4119568,38.0506058z"
		/>
	<path class="st1" d="M14.2941809,14.4298754c-0.0420427,0.968111,0.0058537,1.7062273,0.0263357,1.9802885
		c0.187109-0.0682907,0.382206-0.1372452,0.583847-0.2063198c0.0939703,0.9369831,0.2364178,1.8685169,0.4265232,2.7891026
		c-0.4986954,0.5534248-0.8155746,1.3790512-0.8155746,2.3019772c0,1.499939,0.8361759,2.7436581,1.9313965,2.9771538
		c-0.3169441,2.5904789-0.3344936,5.9713459,0.3326302,7.1557121c0.0362854-0.1290531,0.0725708-0.2581024,0.1088562-0.3871498
		c0.1331005,0.8828545,0.5605412,1.7187595,1.1983643,2.3435192c0.0000858-0.1470642,0.0001945-0.2940826,0.0003128-0.4411354
		c0.1481819,0.2619591,0.2884636,0.5231171,0.4378529,0.7774391c0.2250977,0.3832092,0.4711952,0.7507248,0.7962799,1.0817986
		c0.1625404,0.1655388,0.3446369,0.3220711,0.5540943,0.4667397c-0.0090122-0.1847115-0.0180035-0.3693733-0.0270252-0.5540466
		c0.4308243,0.723114,0.9914513,1.2599297,1.8041801,1.8137856c-0.0018311-0.0897331-0.0036964-0.1794586-0.0055294-0.2692261
		c0.268261,0.3702469,0.6006756,0.7750511,1.0688534,1.1016731c0.0797615,0.0556488,0.1629944,0.1092911,0.2510128,0.1598167
		c0.0199966-0.0581474,0.0118141-0.1137733,0.0047112-0.1694946c-0.0065536-0.0513573-0.0121918-0.1027985,0.0062199-0.1563988
		c0.0432167,0.0553131,0.0954571,0.1054497,0.1545429,0.1510811c0.6343403,0.4898796,2.0785561,0.4488297,2.0785561,0.4488297
		s1.4031849,0.0398979,2.0508709-0.4280701c0.070631-0.051033,0.132412-0.1080132,0.1822796-0.1718407
		c0.0208817,0.0608063,0.0110188,0.1188545,0.0037632,0.1771393c-0.0060692,0.0488319-0.0103607,0.0978165,0.0071583,0.1487541
		c0.0787582-0.0452118,0.1538963-0.0927849,0.2260036-0.1421356c0.4815884-0.329586,0.8208351-0.742466,1.0938625-1.1193542
		c-0.0018215,0.0897675-0.0036983,0.179493-0.0055199,0.2692261c0.7814236-0.5325203,1.3294067-1.0497818,1.7534294-1.7315331
		c0.0169888-0.027317,0.0341511-0.0543976,0.0507526-0.0822525c-0.0015087,0.0308571-0.0030193,0.0617218-0.004528,0.0925789
		c-0.0075035,0.1538124-0.0149956,0.307621-0.0225086,0.4614677c0.16502-0.1139755,0.3130531-0.235321,0.447998-0.3625984
		c0.2518425-0.2375488,0.4575691-0.4960251,0.6403122-0.7671394c0.2571163-0.3814812,0.4689331-0.787899,0.6999168-1.1962395
		c0.0001183,0.1470528,0.0002365,0.2940712,0.0003548,0.4411354c0.637825-0.6247597,1.0652313-1.4606647,1.1983223-2.3435192
		c0.0362854,0.1290474,0.0725822,0.2580967,0.1088676,0.3871498c0.6671143-1.1843662,0.6495628-4.5652332,0.3326302-7.1557121
		c1.0952187-0.2334957,1.931385-1.4772148,1.931385-2.9771538c0-1.4365406-0.7671204-2.637743-1.7941132-2.9418831
		c0.295784-0.7036648,0.5355415-1.4308071,0.7155685-2.1726093c0.2160225,0.0732708,0.4234962,0.1459789,0.6198769,0.2172222
		c0.0015068-0.1200123,0.0029716-0.2988853,0.0017014-0.515481c0,0,0.0316391-1.6711826-0.1777954-3.0429363
		c-0.016861-0.1104336-0.033699-0.2206783-0.0507202-0.3307161c-0.0255814-0.5577383-0.1088905-1.1107979-0.2957306-1.630722
		C34.6653938,9.7289143,34.26474,8.6415739,33.462513,7.6914659c-1.568327-1.8573785-3.8432827-2.2107916-6.2298565-2.581593
		c-1.3613701-0.211483-3.8242664-0.4054995-6.6626968,0.4483314c-0.8943348,0.2690296-2.0308971,0.6108246-3.0144691,1.298522
		c-1.6914654,1.1825824-2.5253992,3.1048884-2.926568,4.925302c-0.2956533,0.8505058-0.4258976,1.7569542-0.3384504,2.6601992
		C14.2917118,14.4381094,14.2929411,14.4339933,14.2941809,14.4298754z M33.8985214,19.3257351
		c-0.0001411,0.3685951-0.0011101,0.7420082-0.0011101,1.1195889c0,0.9767761-0.0150833,1.9260559-0.0670204,2.834444
		c-0.0138092,0.2414017-0.0302391,0.4798946-0.0496521,0.7152653c-0.022068,0.1053905-0.0478439,0.2098923-0.0768509,0.3135834
		c-0.2525444,0.9029694-0.7531281,1.7434711-1.2440834,2.5541801c-0.2960091,0.4888134-0.6056557,0.990797-0.9919472,1.4064751
		c-0.2269421,0.2441998-0.4802189,0.4587345-0.773016,0.6229801c-0.6364326,0.3569641-2.5967522,0.9607601-3.6640968,0.3459949
		c-0.9684258-0.5577908-1.0690022-0.4244747-1.0690022-0.4244747h-1.5021687c0,0,0.0287399-0.1644821-1.0690365,0.4244747
		c-1.0854111,0.5823345-3.0276203,0.0109692-3.6640854-0.3459949c-0.2927952-0.1642456-0.5460625-0.3787804-0.7730045-0.6229801
		c-0.3862915-0.415678-0.6959496-0.9176617-0.9919701-1.4064751c-0.4909554-0.810709-0.9915371-1.651207-1.2440815-2.5541763
		c-0.0290203-0.103775-0.0548172-0.2083626-0.0768948-0.3138409c-0.0194149-0.2352905-0.0358315-0.4737015-0.0496311-0.7150154
		c-0.0519485-0.90839-0.06703-1.8576679-0.06703-2.8344402c0-0.2791271-0.0005283-0.5559483-0.0008621-0.8302727
		c0.0534153-0.1074314,0.108263-0.2140522,0.1652355-0.3194408c0.178669-0.3305302,0.3749733-0.650425,0.5867157-0.9585972
		c0.9363651-1.3627625,2.1816025-2.4903908,3.6138725-3.2317619c-0.1735916,0.5206356-0.4630356,0.9977512-0.8383217,1.3819427
		c1.9415302-0.2340584,3.8234024-0.9129915,5.5152893-1.9429579c2.6342335,0.0577946,4.9474831,0.4477386,6.846981,0.9248095
		c0.0239105,0.032855,0.0471535,0.066144,0.0714073,0.098772c0.0031166-0.0260687,0.0062294-0.0521402,0.009346-0.0782089
		c0.1977692,0.0502348,0.3911743,0.1012945,0.579731,0.1530743c0.2141113,0.8796635,0.4282341,1.7593231,0.6423492,2.6389694
		c0.0505371,0.207613,0.1010742,0.4152336,0.1516113,0.6228447c0.0105629-0.0224152,0.0203934-0.0451679,0.0308418-0.0676403
		C33.898468,18.9988079,33.8985863,19.161787,33.8985214,19.3257351z"/>
	<path class="st1" d="M25,0.4C38.5644913,0.4,49.5999985,11.4355097,49.5999985,25S38.5644913,49.5999985,25,49.5999985
		S0.4,38.5644913,0.4,25S11.4355097,0.4,25,0.4 M25,0C11.1928797,0,0,11.1928797,0,25s11.1928797,25,25,25s25-11.1928787,25-25
		S38.8071213,0,25,0L25,0z"/>
</g>
</svg>
