<svg width="56" height="56" viewBox="0 0 56 56" fill="none" xmlns="http://www.w3.org/2000/svg">
<g clip-path="url(#clip0_77_944)">
<path d="M15.462 12.7444C14.6544 11.9361 13.3441 11.9361 12.5365 12.7444C9.53783 15.743 8.064 19.9203 8.49231 24.2058C8.59917 25.2734 9.49857 26.0692 10.5489 26.0692C10.6179 26.0692 10.6875 26.0657 10.7565 26.0588C11.8938 25.9451 12.7234 24.9305 12.6096 23.794C12.3048 20.7485 13.3448 17.7871 15.462 15.6698C16.2703 14.8623 16.2703 13.5519 15.462 12.7444Z" fill="url(#paint0_linear_77_944)"/>
<path fill-rule="evenodd" clip-rule="evenodd" d="M0 23.6552C0 10.6117 10.6117 0 23.6552 0C36.6986 0 47.3104 10.6117 47.3104 23.6552C47.3104 29.4338 45.2276 34.7351 41.7734 38.8478L55.394 52.4683C56.2022 53.2759 56.2022 54.5863 55.394 55.3939C54.9898 55.798 54.4609 56 53.9312 56C53.4015 56 52.8726 55.798 52.4684 55.3939L38.8478 41.7734C34.7351 45.2276 29.4338 47.3104 23.6552 47.3104C10.6117 47.3104 0 36.6987 0 23.6552ZM37.6529 37.2432C37.5766 37.3008 37.5034 37.3643 37.4338 37.4338C37.3642 37.5035 37.3005 37.5768 37.2429 37.6532C33.7265 41.0675 28.9321 43.1724 23.6552 43.1724C12.8931 43.1724 4.13798 34.4173 4.13798 23.6552C4.13798 12.8931 12.8931 4.13798 23.6552 4.13798C34.4166 4.13798 43.1724 12.8931 43.1724 23.6552C43.1724 28.9323 41.0674 33.7268 37.6529 37.2432Z" fill="url(#paint1_linear_77_944)"/>
</g>
<defs>
<linearGradient id="paint0_linear_77_944" x1="8.41943" y1="19.1037" x2="16.0682" y2="19.1037" gradientUnits="userSpaceOnUse">
<stop stop-color="#522B79"/>
<stop offset="1" stop-color="#ED3284"/>
</linearGradient>
<linearGradient id="paint1_linear_77_944" x1="4.17233e-07" y1="28" x2="56.0001" y2="28" gradientUnits="userSpaceOnUse">
<stop stop-color="#522B79"/>
<stop offset="1" stop-color="#ED3284"/>
</linearGradient>
<clipPath id="clip0_77_944">
<rect width="56" height="56" fill="white"/>
</clipPath>
</defs>
</svg>
