<?xml version="1.0" encoding="utf-8"?>
<!-- Generator: Adobe Illustrator 26.3.0, SVG Export Plug-In . SVG Version: 6.00 Build 0)  -->
<svg version="1.1" id="Layer_1" xmlns="http://www.w3.org/2000/svg" xmlns:xlink="http://www.w3.org/1999/xlink" x="0px" y="0px"
	 viewBox="0 0 55.403801 59.7014008" style="enable-background:new 0 0 55.403801 59.7014008;" xml:space="preserve">
<style type="text/css">
	.st0{fill:#073C75;}
	.st1{fill:url(#SVGID_1_);}
	.st2{fill:url(#SVGID_00000031166589967330405360000010828811032615814584_);}
	.st3{fill:url(#SVGID_00000006688121558449256150000004924006043199810179_);}
	.st4{fill:url(#SVGID_00000017517443458372516600000001881265462032310201_);}
	.st5{fill:url(#SVGID_00000119818922672556899740000016097418000918093962_);}
	.st6{fill:url(#SVGID_00000150789589170020702270000005176351586442635139_);}
</style>
<g>
	<g>
		<polygon class="st0" points="40.3070412,0.000003 33.2002144,2.378566 39.2818069,6.9459262 		"/>
		<polygon class="st0" points="54.9298706,10.1796293 49.4341507,6.0368328 49.0158691,13.5878105 		"/>
		<polygon class="st0" points="47.6718369,13.2662525 48.1037064,5.4436455 41.1320915,8.3446302 		"/>
		<polygon class="st0" points="47.1809006,4.3371639 41.6671143,0.1947195 40.6409798,7.0863256 		"/>
		<path class="st0" d="M48.4331932,15.5512772l-7.5123444,4.2649326c-0.2671394-0.2835751-0.5423279-0.5613518-0.825592-0.8335819
			l7.2203445-4.2812643l-7.2540588-5.4526215l-2.4620209,7.6427507C37.243,16.6319218,36.8814697,16.38447,36.5155754,16.1475792
			l2.4283752-7.7487507l-6.5759201-4.9210329l1.8541985,11.3600121
			c-10.0252876-5.0042391-22.4997292-2.3103981-29.4722214,6.9670515
			c-7.8547864,10.4515038-5.7497587,25.2917213,4.7016859,33.1465263
			c10.4515228,7.854847,25.2917233,5.7497597,33.1465302-4.7016869c6.5971603-8.7780571,6.1658401-20.6504135-0.3326759-28.881403
			l12.0292587-1.4269848L48.4331932,15.5512772z M39.2928391,47.7655182
			c-6.4725304,8.6121597-18.7447681,10.3529396-27.3569069,3.8804665
			C3.323735,45.1735306,1.5829921,32.9012184,8.0554657,24.2890797c6.4724541-8.6121979,18.744709-10.3529215,27.3569069-3.8804665
			C44.0245094,26.8810863,45.7652931,39.1533203,39.2928391,47.7655182z"/>
		<polygon class="st0" points="49.6870155,14.7888899 55.0910683,18.8608341 55.4037781,11.4924889 		"/>
	</g>
	<g>
		
			<linearGradient id="SVGID_1_" gradientUnits="userSpaceOnUse" x1="-1.7309302" y1="31.8109646" x2="59.7508392" y2="31.8109646" gradientTransform="matrix(0.9499344 -0.3124514 0.3124514 0.9499344 -7.9465666 10.1234398)">
			<stop  offset="0" style="stop-color:#522B79"/>
			<stop  offset="1" style="stop-color:#ED3284"/>
		</linearGradient>
		<polygon class="st1" points="40.3070412,0.000003 33.2002144,2.378566 39.2818069,6.9459262 		"/>
		
			<linearGradient id="SVGID_00000110459204140963447650000013196795073122750110_" gradientUnits="userSpaceOnUse" x1="-1.7309302" y1="31.8109646" x2="59.7508392" y2="31.8109646" gradientTransform="matrix(0.9499344 -0.3124514 0.3124514 0.9499344 -7.9465666 10.1234398)">
			<stop  offset="0" style="stop-color:#522B79"/>
			<stop  offset="1" style="stop-color:#ED3284"/>
		</linearGradient>
		<polygon style="fill:url(#SVGID_00000110459204140963447650000013196795073122750110_);" points="54.9298706,10.1796293 
			49.4341507,6.0368328 49.0158691,13.5878105 		"/>
		
			<linearGradient id="SVGID_00000178921907954768435210000000505472848377810080_" gradientUnits="userSpaceOnUse" x1="-1.7309302" y1="31.8109646" x2="59.7508392" y2="31.8109646" gradientTransform="matrix(0.9499344 -0.3124514 0.3124514 0.9499344 -7.9465666 10.1234398)">
			<stop  offset="0" style="stop-color:#522B79"/>
			<stop  offset="1" style="stop-color:#ED3284"/>
		</linearGradient>
		<polygon style="fill:url(#SVGID_00000178921907954768435210000000505472848377810080_);" points="47.6718369,13.2662525 
			48.1037064,5.4436455 41.1320915,8.3446302 		"/>
		
			<linearGradient id="SVGID_00000172425229878371998660000017692623945234195619_" gradientUnits="userSpaceOnUse" x1="-1.7309302" y1="31.8109646" x2="59.7508392" y2="31.8109646" gradientTransform="matrix(0.9499344 -0.3124514 0.3124514 0.9499344 -7.9465666 10.1234398)">
			<stop  offset="0" style="stop-color:#522B79"/>
			<stop  offset="1" style="stop-color:#ED3284"/>
		</linearGradient>
		<polygon style="fill:url(#SVGID_00000172425229878371998660000017692623945234195619_);" points="47.1809006,4.3371639 
			41.6671143,0.1947195 40.6409798,7.0863256 		"/>
		
			<linearGradient id="SVGID_00000048482524530543711690000002928414330735130786_" gradientUnits="userSpaceOnUse" x1="-1.7309302" y1="31.8109646" x2="59.7508392" y2="31.8109646" gradientTransform="matrix(0.9499344 -0.3124514 0.3124514 0.9499344 -7.9465666 10.1234398)">
			<stop  offset="0" style="stop-color:#522B79"/>
			<stop  offset="1" style="stop-color:#ED3284"/>
		</linearGradient>
		<path style="fill:url(#SVGID_00000048482524530543711690000002928414330735130786_);" d="M48.4331932,15.5512772
			l-7.5123444,4.2649326c-0.2671394-0.2835751-0.5423279-0.5613518-0.825592-0.8335819l7.2203445-4.2812643l-7.2540588-5.4526215
			l-2.4620209,7.6427507C37.243,16.6319218,36.8814697,16.38447,36.5155754,16.1475792l2.4283752-7.7487507l-6.5759201-4.9210329
			l1.8541985,11.3600121c-10.0252876-5.0042391-22.4997292-2.3103981-29.4722214,6.9670515
			c-7.8547864,10.4515038-5.7497587,25.2917213,4.7016859,33.1465263
			c10.4515228,7.854847,25.2917233,5.7497597,33.1465302-4.7016869c6.5971603-8.7780571,6.1658401-20.6504135-0.3326759-28.881403
			l12.0292587-1.4269848L48.4331932,15.5512772z M39.2928391,47.7655182
			c-6.4725304,8.6121597-18.7447681,10.3529396-27.3569069,3.8804665
			C3.323735,45.1735306,1.5829921,32.9012184,8.0554657,24.2890797c6.4724541-8.6121979,18.744709-10.3529215,27.3569069-3.8804665
			C44.0245094,26.8810863,45.7652931,39.1533203,39.2928391,47.7655182z"/>
		
			<linearGradient id="SVGID_00000092436220115121647590000001665526175429401243_" gradientUnits="userSpaceOnUse" x1="-1.7309302" y1="31.8109646" x2="59.7508392" y2="31.8109646" gradientTransform="matrix(0.9499344 -0.3124514 0.3124514 0.9499344 -7.9465666 10.1234398)">
			<stop  offset="0" style="stop-color:#522B79"/>
			<stop  offset="1" style="stop-color:#ED3284"/>
		</linearGradient>
		<polygon style="fill:url(#SVGID_00000092436220115121647590000001665526175429401243_);" points="49.6870155,14.7888899 
			55.0910683,18.8608341 55.4037781,11.4924889 		"/>
	</g>
</g>
</svg>
