<svg width="50" height="52" viewBox="0 0 50 52" fill="none" xmlns="http://www.w3.org/2000/svg">
<path d="M21.3573 22.6667C23.5989 22.6667 25.79 22.002 27.6538 20.7567C29.5176 19.5113 30.9702 17.7413 31.828 15.6704C32.6858 13.5995 32.9102 11.3208 32.4729 9.12231C32.0356 6.92386 30.9562 4.90446 29.3712 3.31946C27.7862 1.73447 25.7668 0.655071 23.5684 0.217772C21.3699 -0.219527 19.0912 0.00491055 17.0203 0.862704C14.9494 1.7205 13.1793 3.17312 11.934 5.03688C10.6887 6.90063 10.024 9.09182 10.024 11.3333C10.0275 14.338 11.2227 17.2187 13.3474 19.3433C15.472 21.468 18.3526 22.6631 21.3573 22.6667ZM21.3573 4C22.8077 4 24.2256 4.4301 25.4315 5.23589C26.6375 6.04169 27.5774 7.187 28.1324 8.52699C28.6875 9.86698 28.8327 11.3415 28.5498 12.764C28.2668 14.1865 27.5684 15.4932 26.5428 16.5188C25.5172 17.5444 24.2105 18.2428 22.788 18.5258C21.3655 18.8087 19.891 18.6635 18.551 18.1085C17.211 17.5534 16.0657 16.6135 15.2599 15.4075C14.4541 14.2016 14.024 12.7837 14.024 11.3333C14.0261 9.38907 14.7994 7.52504 16.1742 6.15023C17.549 4.77542 19.4131 4.00212 21.3573 4ZM4.66667 42.0533C4.66667 46.2213 6.46133 48 10.6667 48H29.3333C29.8638 48 30.3725 48.2107 30.7475 48.5858C31.1226 48.9609 31.3333 49.4696 31.3333 50C31.3333 50.5304 31.1226 51.0392 30.7475 51.4142C30.3725 51.7893 29.8638 52 29.3333 52H10.6667C4.21867 52 0.666666 48.4667 0.666666 42.0533C0.666666 34.9547 4.68267 26.6667 16 26.6667H26.6667C30.2407 26.5227 33.7543 27.6204 36.6107 29.7733C36.8226 29.9352 37 30.1377 37.1325 30.3691C37.265 30.6004 37.3498 30.856 37.3821 31.1206C37.4144 31.3853 37.3935 31.6537 37.3205 31.9102C37.2476 32.1666 37.1241 32.4059 36.9573 32.6139C36.7905 32.8219 36.5838 32.9945 36.3494 33.1215C36.115 33.2485 35.8575 33.3273 35.5922 33.3533C35.3268 33.3794 35.0589 33.3521 34.8043 33.2731C34.5496 33.1941 34.3134 33.065 34.1093 32.8933C31.9572 31.3195 29.3295 30.5334 26.6667 30.6667H16C14.4772 30.5493 12.947 30.7638 11.5151 31.2953C10.0832 31.8268 8.78367 32.6626 7.7062 33.7452C6.62874 34.8277 5.79899 36.1311 5.27422 37.5655C4.74946 38.9999 4.54217 40.5311 4.66667 42.0533ZM50 44.6667C50 45.1971 49.7893 45.7058 49.4142 46.0809C49.0391 46.456 48.5304 46.6667 48 46.6667H44.6667V50C44.6667 50.5304 44.456 51.0392 44.0809 51.4142C43.7058 51.7893 43.1971 52 42.6667 52C42.1362 52 41.6275 51.7893 41.2525 51.4142C40.8774 51.0392 40.6667 50.5304 40.6667 50V46.6667H37.3333C36.8029 46.6667 36.2942 46.456 35.9191 46.0809C35.544 45.7058 35.3333 45.1971 35.3333 44.6667C35.3333 44.1362 35.544 43.6275 35.9191 43.2525C36.2942 42.8774 36.8029 42.6667 37.3333 42.6667H40.6667V39.3333C40.6667 38.8029 40.8774 38.2942 41.2525 37.9191C41.6275 37.5441 42.1362 37.3333 42.6667 37.3333C43.1971 37.3333 43.7058 37.5441 44.0809 37.9191C44.456 38.2942 44.6667 38.8029 44.6667 39.3333V42.6667H48C48.5304 42.6667 49.0391 42.8774 49.4142 43.2525C49.7893 43.6275 50 44.1362 50 44.6667Z" fill="url(#paint0_linear_77_813)"/>
<defs>
<linearGradient id="paint0_linear_77_813" x1="0.666666" y1="26" x2="50" y2="26" gradientUnits="userSpaceOnUse">
<stop stop-color="#522B79"/>
<stop offset="1" stop-color="#ED3284"/>
</linearGradient>
</defs>
</svg>
