<svg width="54" height="54" viewBox="0 0 54 54" fill="none" xmlns="http://www.w3.org/2000/svg">
<path d="M51.5612 38.5395C51.4685 38.4625 40.9755 30.9865 38.1423 31.4538C36.7755 31.6952 35.995 32.628 34.4288 34.4935C34.1768 34.7945 33.5695 35.5138 33.1005 36.0265C32.1106 35.704 31.145 35.311 30.2112 34.8505C25.3909 32.5038 21.4962 28.6091 19.1495 23.7887C18.689 22.855 18.296 21.8894 17.9735 20.8995C18.488 20.4287 19.209 19.8215 19.517 19.5625C21.3738 18.005 22.3048 17.2227 22.5462 15.8542C23.0415 13.021 15.5375 2.5315 15.4605 2.437C15.1188 1.95235 14.6737 1.54962 14.1574 1.25788C13.6411 0.966141 13.0665 0.792674 12.475 0.75C9.4335 0.75 0.75 12.013 0.75 13.9117C0.75 14.022 0.90925 25.229 14.729 39.2868C28.771 53.0908 39.978 53.25 40.0882 53.25C41.9852 53.25 53.25 44.5665 53.25 41.525C53.2069 40.9334 53.033 40.3588 52.741 39.8425C52.449 39.3263 52.0461 38.8812 51.5612 38.5395ZM39.894 49.7395C38.375 49.61 28.96 48.3693 17.2 36.8175C5.59225 24.9998 4.383 15.569 4.26225 14.1078C6.55611 10.5074 9.32639 7.23379 12.4977 4.376C12.5677 4.446 12.6605 4.551 12.7795 4.6875C15.2117 8.00765 17.3069 11.562 19.034 15.2977C18.4724 15.8628 17.8787 16.3951 17.256 16.892C16.2903 17.6278 15.4036 18.4618 14.61 19.3805C14.4757 19.5689 14.3801 19.7821 14.3288 20.0077C14.2774 20.2332 14.2713 20.4668 14.3107 20.6947C14.6811 22.299 15.2483 23.8514 15.9995 25.3165C18.6908 30.843 23.1566 35.3082 28.6835 37.9987C30.1483 38.751 31.7007 39.3188 33.3053 39.6892C33.5332 39.7287 33.7668 39.7226 33.9923 39.6712C34.2179 39.6199 34.4311 39.5243 34.6195 39.39C35.5415 38.5932 36.3784 37.7029 37.1167 36.7335C37.6663 36.079 38.3995 35.2057 38.6777 34.959C42.423 36.6844 45.9853 38.7822 49.3108 41.2205C49.456 41.343 49.5592 41.4375 49.6275 41.4987C46.7696 44.6711 43.4953 47.442 39.894 49.736V49.7395Z" fill="url(#paint0_linear_77_939)"/>
<path d="M28.75 14.75C31.5339 14.7528 34.203 15.8599 36.1716 17.8284C38.1401 19.797 39.2472 22.4661 39.25 25.25C39.25 25.7141 39.4344 26.1592 39.7626 26.4874C40.0908 26.8156 40.5359 27 41 27C41.4641 27 41.9092 26.8156 42.2374 26.4874C42.5656 26.1592 42.75 25.7141 42.75 25.25C42.7458 21.5382 41.2695 17.9797 38.6449 15.3551C36.0203 12.7305 32.4618 11.2542 28.75 11.25C28.2859 11.25 27.8408 11.4344 27.5126 11.7626C27.1844 12.0908 27 12.5359 27 13C27 13.4641 27.1844 13.9092 27.5126 14.2374C27.8408 14.5656 28.2859 14.75 28.75 14.75Z" fill="url(#paint1_linear_77_939)"/>
<path d="M28.75 6C33.8536 6.00602 38.7464 8.03607 42.3552 11.6448C45.9639 15.2536 47.994 20.1464 48 25.25C48 25.7141 48.1844 26.1592 48.5126 26.4874C48.8407 26.8156 49.2859 27 49.75 27C50.2141 27 50.6593 26.8156 50.9874 26.4874C51.3156 26.1592 51.5 25.7141 51.5 25.25C51.4931 19.2185 49.094 13.4359 44.829 9.17099C40.5641 4.90605 34.7815 2.50695 28.75 2.5C28.2859 2.5 27.8408 2.68437 27.5126 3.01256C27.1844 3.34075 27 3.78587 27 4.25C27 4.71413 27.1844 5.15925 27.5126 5.48744C27.8408 5.81563 28.2859 6 28.75 6Z" fill="url(#paint2_linear_77_939)"/>
<defs>
<linearGradient id="paint0_linear_77_939" x1="0.75" y1="27" x2="53.25" y2="27" gradientUnits="userSpaceOnUse">
<stop stop-color="#522B79"/>
<stop offset="1" stop-color="#ED3284"/>
</linearGradient>
<linearGradient id="paint1_linear_77_939" x1="27" y1="19.125" x2="42.75" y2="19.125" gradientUnits="userSpaceOnUse">
<stop stop-color="#522B79"/>
<stop offset="1" stop-color="#ED3284"/>
</linearGradient>
<linearGradient id="paint2_linear_77_939" x1="27" y1="14.75" x2="51.5" y2="14.75" gradientUnits="userSpaceOnUse">
<stop stop-color="#522B79"/>
<stop offset="1" stop-color="#ED3284"/>
</linearGradient>
</defs>
</svg>
